<?xml version="1.0" encoding="UTF-8"?>
<!DOCTYPE svg PUBLIC "-//W3C//DTD SVG 1.1//EN" "http://www.w3.org/Graphics/SVG/1.1/DTD/svg11.dtd">
<!-- Creator: CorelDRAW X7 -->
<svg xmlns="http://www.w3.org/2000/svg" xml:space="preserve" width="1.05833E+006px" height="1.05833E+006px" version="1.1" style="shape-rendering:geometricPrecision; text-rendering:geometricPrecision; image-rendering:optimizeQuality; fill-rule:evenodd; clip-rule:evenodd"
viewBox="0 0 10583333 10583333"
 xmlns:xlink="http://www.w3.org/1999/xlink">
 <defs>
  <style type="text/css">
   <![CDATA[
    .fil1 {fill:#5A67B9}
    .fil0 {fill:white}
   ]]>
  </style>
 </defs>
 <g id="Слой_x0020_1">
  <metadata id="CorelCorpID_0Corel-Layer"/>
  <ellipse class="fil0" cx="5291664" cy="5291650" rx="5291648" ry="5291651"/>
  <path class="fil1" d="M5515991 1975718c536956,0 1001734,62971 1394291,188870 392557,125963 716597,301837 972163,527748 255524,225891 446236,496253 570294,811065 124058,314769 185208,659151 185208,1033208 0,388853 -64854,744368 -194437,1068451 -129603,324041 -324083,603631 -583311,836951 -862647,776267 -1966447,444776 -1966447,-772265l772055 0 -1519238 -2266210 -1519195 2266210 772033 0 0 1986216 0 951569 -1494324 0 0 -2937785 0 -3694028 2610908 0z"/>
 </g>
</svg>
