<?xml version="1.0" encoding="UTF-8"?>
<!DOCTYPE svg PUBLIC "-//W3C//DTD SVG 1.1//EN" "http://www.w3.org/Graphics/SVG/1.1/DTD/svg11.dtd">
<!-- Creator: CorelDRAW X7 -->
<svg xmlns="http://www.w3.org/2000/svg" xml:space="preserve" width="300px" height="347px" version="1.1" style="shape-rendering:geometricPrecision; text-rendering:geometricPrecision; image-rendering:optimizeQuality; fill-rule:evenodd; clip-rule:evenodd"
viewBox="0 0 3000 3470"
 xmlns:xlink="http://www.w3.org/1999/xlink">
 <defs>
  <style type="text/css">
   <![CDATA[
    .fil0 {fill:#5A67B9}
   ]]>
  </style>
 </defs>
 <g id="Слой_x0020_1">
  <metadata id="CorelCorpID_0Corel-Layer"/>
  <path class="fil0" d="M-17056 6963c466,0 843,378 843,843 0,466 -377,843 -843,843 -465,0 -842,-377 -842,-843 0,-465 377,-843 842,-843zm-359 233c2,153 127,277 281,277l173 0c91,0 165,74 165,164l0 13c0,91 -74,164 -165,164l-173 0c-155,0 -281,126 -281,281l0 171c51,-103 158,-174 281,-174l176 0c242,0 439,-198 439,-439 0,-6 0,-12 0,-19 0,-241 -197,-438 -439,-438l-457 0zm293 928c-2,160 -132,291 -293,293l0 -13c0,-154 126,-280 281,-280l12 0z"/>
  <path class="fil0" d="M1366 0c281,0 524,33 730,99 205,66 375,158 509,276 133,118 233,260 298,424 65,165 97,345 97,541 0,204 -34,390 -102,559 -68,170 -169,316 -305,438 -451,406 -1029,233 -1029,-404l404 0 -795 -1186 -795 1186 404 0 0 1039 0 498 -782 0 0 -1537 0 -1933 1366 0z"/>
 </g>
</svg>
