<?xml version="1.0" encoding="UTF-8"?>
<!DOCTYPE svg PUBLIC "-//W3C//DTD SVG 1.1//EN" "http://www.w3.org/Graphics/SVG/1.1/DTD/svg11.dtd">
<!-- Creator: CorelDRAW X7 -->
<svg xmlns="http://www.w3.org/2000/svg" xml:space="preserve" width="300px" height="300px" version="1.1" style="shape-rendering:geometricPrecision; text-rendering:geometricPrecision; image-rendering:optimizeQuality; fill-rule:evenodd; clip-rule:evenodd"
viewBox="0 0 3000 3000"
 xmlns:xlink="http://www.w3.org/1999/xlink">
 <defs>
  <style type="text/css">
   <![CDATA[
    .fil1 {fill:#24B6FF}
    .fil0 {fill:white}
   ]]>
  </style>
 </defs>
 <g id="Слой_x0020_1">
  <metadata id="CorelCorpID_0Corel-Layer"/>
  <circle class="fil0" cx="1500" cy="1500" r="1500"/>
  <path class="fil1" d="M1564 560c152,0 284,18 395,54 111,35 203,85 275,149 73,64 127,141 162,230 35,89 53,187 53,293 0,110 -19,211 -56,303 -36,92 -91,171 -165,237 -244,220 -557,126 -557,-219l219 0 -431 -642 -431 642 219 0 0 563 0 270 -424 0 0 -833 0 -1047 741 0z"/>
 </g>
</svg>
