<?xml version="1.0" encoding="utf-8"?>
<!-- Generator: Adobe Illustrator 21.1.0, SVG Export Plug-In . SVG Version: 6.00 Build 0)  -->
<svg version="1.1" id="Layer_1" xmlns="http://www.w3.org/2000/svg" xmlns:xlink="http://www.w3.org/1999/xlink" x="0px" y="0px"
	 viewBox="0 0 15 15" style="enable-background:new 0 0 15 15;" xml:space="preserve">
<style type="text/css">
	.st0{fill:#24B6FF;}
</style>
<path class="st0" d="M15,7.5c0,4.1-3.4,7.5-7.5,7.5S0,11.6,0,7.5S3.4,0,7.5,0S15,3.4,15,7.5z M5.1,8.1l2.2-3.2L9.4,8H8.3
	c0,1.8,1.4,1.7,1.4,1.7c1.2,0,2-1.1,2.3-1.9c0.2-0.7,0.2-1.2,0.2-1.2V6.4c0-2.3-1.5-3.1-2.9-3.5C8.6,2.8,7.6,2.8,7.6,2.8l-3.5,0v9.4
	h2.1V8.1L5.1,8.1z"/>
</svg>
