<?xml version="1.0" encoding="UTF-8"?>
<!DOCTYPE svg PUBLIC "-//W3C//DTD SVG 1.1//EN" "http://www.w3.org/Graphics/SVG/1.1/DTD/svg11.dtd">
<!-- Creator: CorelDRAW X7 -->
<svg xmlns="http://www.w3.org/2000/svg" xml:space="preserve" width="600px" height="162px" version="1.1" style="shape-rendering:geometricPrecision; text-rendering:geometricPrecision; image-rendering:optimizeQuality; fill-rule:evenodd; clip-rule:evenodd"
viewBox="0 0 6000 1623"
 xmlns:xlink="http://www.w3.org/1999/xlink">
 <defs>
  <style type="text/css">
   <![CDATA[
    .fil0 {fill:black}
    .fil1 {fill:#5A67B9}
    .fil2 {fill:black;fill-rule:nonzero}
   ]]>
  </style>
 </defs>
 <g id="Слой_x0020_1">
  <metadata id="CorelCorpID_0Corel-Layer"/>
  <circle class="fil0" cx="811" cy="811" r="811"/>
  <path class="fil1" d="M846 303c82,0 153,10 214,29 60,19 110,46 149,81 39,34 68,76 87,124 19,48 29,101 29,159 0,59 -10,114 -30,164 -20,49 -50,92 -90,128 -132,119 -301,68 -301,-119l118 0 -233 -347 -233 347 119 0 0 305 0 146 -230 0 0 -451 0 -566 401 0z"/>
  <path class="fil2" d="M1955 303l0 1007 228 0 0 -288 199 0c257,0 403,-135 403,-370 0,-222 -146,-349 -403,-349l-427 0zm228 188l188 0c127,0 198,56 198,169 0,115 -71,172 -198,172l-188 0 0 -341zm1638 -188l-227 0 0 585c0,146 -90,233 -225,233 -135,0 -230,-87 -230,-233l0 -585 -227 0 0 585c0,266 178,432 457,432 278,0 452,-166 452,-432l0 -585zm821 1007l258 0 -215 -332c123,-58 189,-170 189,-326 0,-222 -150,-349 -413,-349l-437 0 0 1007 227 0 0 -288 210 0 22 0 159 288zm-391 -478l0 -341 210 0c125,0 197,56 197,169 0,115 -72,172 -197,172l-210 0zm1476 478l273 0 -404 -587 378 -420 -263 0 -419 457 0 -457 -227 0 0 1007 227 0 0 -249 146 -161 289 410z"/>
 </g>
</svg>
